<svg width="207" height="134" viewBox="0 0 207 134" fill="none" xmlns="http://www.w3.org/2000/svg">
<path d="M39.6504 0H12L41.1057 95H68.7561L39.6504 0Z" fill="url(#paint0_linear_44_169)"/>
<path d="M126.968 95L97.8618 0L84.0366 45.3077L99.3171 95H126.968Z" fill="url(#paint1_linear_44_169)"/>
<path d="M68.7561 95L54.9309 49.6923L70.2114 0H97.8618L68.7561 95Z" fill="url(#paint2_linear_44_169)"/>
<path d="M126.967 95L113.142 49.6923L128.423 0H156.073L126.967 95Z" fill="url(#paint3_linear_44_169)"/>
<path d="M188.817 65.0385L174.264 48.9615L138.61 67.2308L129.878 95L188.817 65.0385Z" fill="url(#paint4_linear_44_169)"/>
<path d="M191 40.9231L156.073 0L149.286 22.2028L188.817 65.0385L191 40.9231Z" fill="url(#paint5_linear_44_169)"/>
<path d="M32.8465 113.504L26.1246 133.655H21.0171L16.4967 120.01L11.8294 133.655H6.7513L0 113.504H4.93138L9.56923 127.667L14.4126 113.504H18.8156L23.5121 127.782L28.2967 113.504H32.8465Z" fill="#EF3A01"/>
<path d="M41.3157 133.885C39.6523 133.885 38.1553 133.549 36.8246 132.877C35.5135 132.186 34.4861 131.237 33.7425 130.028C32.9989 128.819 32.6271 127.446 32.6271 125.911C32.6271 124.376 32.9989 123.004 33.7425 121.795C34.4861 120.586 35.5135 119.645 36.8246 118.974C38.1553 118.283 39.6523 117.937 41.3157 117.937C42.9791 117.937 44.4663 118.283 45.7774 118.974C47.0885 119.645 48.1159 120.586 48.8595 121.795C49.6032 123.004 49.975 124.376 49.975 125.911C49.975 127.446 49.6032 128.819 48.8595 130.028C48.1159 131.237 47.0885 132.186 45.7774 132.877C44.4663 133.549 42.9791 133.885 41.3157 133.885ZM41.3157 130.2C42.4898 130.2 43.4487 129.816 44.1923 129.049C44.9555 128.262 45.3371 127.216 45.3371 125.911C45.3371 124.606 44.9555 123.57 44.1923 122.802C43.4487 122.015 42.4898 121.622 41.3157 121.622C40.1416 121.622 39.1729 122.015 38.4097 122.802C37.6465 123.57 37.2649 124.606 37.2649 125.911C37.2649 127.216 37.6465 128.262 38.4097 129.049C39.1729 129.816 40.1416 130.2 41.3157 130.2Z" fill="#EF3A01"/>
<path d="M57.2076 120.212C57.7555 119.463 58.4894 118.897 59.4091 118.513C60.3484 118.129 61.4247 117.937 62.638 117.937V122.083C62.1292 122.044 61.7868 122.025 61.6106 122.025C60.2995 122.025 59.2721 122.39 58.5285 123.119C57.7849 123.829 57.4131 124.904 57.4131 126.343V133.655H52.834V118.168H57.2076V120.212Z" fill="#EF3A01"/>
<path d="M65.159 112.295H69.7381V133.655H65.159V112.295Z" fill="#EF3A01"/>
<path d="M89.8718 112.295V133.655H85.4982V131.87C84.3632 133.213 82.7194 133.885 80.5668 133.885C79.0795 133.885 77.7293 133.559 76.516 132.906C75.3223 132.254 74.383 131.323 73.6981 130.114C73.0132 128.905 72.6707 127.504 72.6707 125.911C72.6707 124.318 73.0132 122.917 73.6981 121.708C74.383 120.499 75.3223 119.569 76.516 118.916C77.7293 118.264 79.0795 117.937 80.5668 117.937C82.5824 117.937 84.1577 118.561 85.2927 119.809V112.295H89.8718ZM81.3593 130.2C82.5139 130.2 83.4728 129.816 84.236 129.049C84.9992 128.262 85.3808 127.216 85.3808 125.911C85.3808 124.606 84.9992 123.57 84.236 122.802C83.4728 122.015 82.5139 121.622 81.3593 121.622C80.1852 121.622 79.2165 122.015 78.4533 122.802C77.6901 123.57 77.3085 124.606 77.3085 125.911C77.3085 127.216 77.6901 128.262 78.4533 129.049C79.2165 129.816 80.1852 130.2 81.3593 130.2Z" fill="#EF3A01"/>
<path d="M104.064 134C101.971 134 100.072 133.559 98.3699 132.676C96.687 131.774 95.3563 130.536 94.3778 128.962C93.4189 127.37 92.9395 125.575 92.9395 123.579C92.9395 121.584 93.4189 119.799 94.3778 118.225C95.3563 116.632 96.687 115.395 98.3699 114.512C100.072 113.61 101.98 113.159 104.094 113.159C105.875 113.159 107.479 113.466 108.908 114.08C110.356 114.694 111.569 115.577 112.548 116.728L109.495 119.492C108.105 117.918 106.383 117.131 104.329 117.131C103.057 117.131 101.922 117.41 100.924 117.966C99.9256 118.504 99.1429 119.262 98.5754 120.24C98.0274 121.219 97.7535 122.332 97.7535 123.579C97.7535 124.827 98.0274 125.94 98.5754 126.919C99.1429 127.897 99.9256 128.665 100.924 129.222C101.922 129.759 103.057 130.028 104.329 130.028C106.383 130.028 108.105 129.231 109.495 127.638L112.548 130.402C111.569 131.572 110.356 132.465 108.908 133.079C107.46 133.693 105.845 134 104.064 134Z" fill="#EF3A01"/>
<path d="M115.234 118.168H119.813V133.655H115.234V118.168ZM117.524 116.009C116.682 116.009 115.997 115.769 115.469 115.289C114.941 114.809 114.676 114.214 114.676 113.504C114.676 112.794 114.941 112.199 115.469 111.72C115.997 111.24 116.682 111 117.524 111C118.365 111 119.05 111.23 119.578 111.691C120.107 112.151 120.371 112.727 120.371 113.418C120.371 114.166 120.107 114.79 119.578 115.289C119.05 115.769 118.365 116.009 117.524 116.009Z" fill="#EF3A01"/>
<path d="M133.46 117.937C135.417 117.937 136.992 118.513 138.186 119.665C139.399 120.816 140.006 122.524 140.006 124.788V133.655H135.427V125.479C135.427 124.251 135.153 123.34 134.605 122.745C134.057 122.131 133.264 121.824 132.227 121.824C131.072 121.824 130.153 122.179 129.468 122.889C128.783 123.579 128.44 124.616 128.44 125.997V133.655H123.861V118.168H128.235V119.981C128.842 119.329 129.595 118.83 130.495 118.484C131.395 118.12 132.384 117.937 133.46 117.937Z" fill="#EF3A01"/>
<path d="M159.596 125.969C159.596 126.026 159.567 126.429 159.508 127.178H147.561C147.776 128.137 148.285 128.895 149.087 129.452C149.89 130.008 150.888 130.287 152.081 130.287C152.903 130.287 153.627 130.171 154.254 129.941C154.899 129.692 155.496 129.308 156.044 128.79L158.481 131.38C156.993 133.05 154.821 133.885 151.964 133.885C150.183 133.885 148.608 133.549 147.238 132.877C145.868 132.186 144.812 131.237 144.068 130.028C143.324 128.819 142.953 127.446 142.953 125.911C142.953 124.395 143.315 123.033 144.039 121.824C144.782 120.595 145.79 119.645 147.062 118.974C148.354 118.283 149.792 117.937 151.377 117.937C152.923 117.937 154.322 118.264 155.575 118.916C156.827 119.569 157.805 120.509 158.51 121.737C159.234 122.946 159.596 124.357 159.596 125.969ZM151.406 121.334C150.369 121.334 149.498 121.622 148.794 122.198C148.089 122.773 147.659 123.56 147.502 124.558H155.281C155.124 123.579 154.694 122.802 153.989 122.227C153.285 121.632 152.424 121.334 151.406 121.334Z" fill="#EF3A01"/>
<path d="M182.667 117.937C184.644 117.937 186.209 118.513 187.364 119.665C188.538 120.797 189.125 122.505 189.125 124.788V133.655H184.546V125.479C184.546 124.251 184.282 123.34 183.753 122.745C183.245 122.131 182.511 121.824 181.552 121.824C180.476 121.824 179.624 122.169 178.998 122.86C178.372 123.531 178.059 124.539 178.059 125.882V133.655H173.48V125.479C173.48 123.042 172.482 121.824 170.486 121.824C169.429 121.824 168.587 122.169 167.961 122.86C167.335 123.531 167.022 124.539 167.022 125.882V133.655H162.443V118.168H166.816V119.952C167.404 119.3 168.118 118.801 168.959 118.456C169.82 118.11 170.76 117.937 171.777 117.937C172.893 117.937 173.9 118.158 174.801 118.6C175.701 119.022 176.425 119.645 176.973 120.471C177.619 119.665 178.431 119.041 179.409 118.6C180.407 118.158 181.493 117.937 182.667 117.937Z" fill="#EF3A01"/>
<path d="M199.397 117.937C201.844 117.937 203.722 118.513 205.033 119.665C206.344 120.797 207 122.514 207 124.817V133.655H202.714V131.726C201.853 133.165 200.249 133.885 197.9 133.885C196.687 133.885 195.63 133.683 194.73 133.28C193.85 132.877 193.174 132.321 192.705 131.611C192.235 130.901 192 130.095 192 129.193C192 127.753 192.548 126.621 193.644 125.796C194.76 124.971 196.472 124.558 198.781 124.558H202.421C202.421 123.579 202.118 122.831 201.511 122.313C200.904 121.776 199.994 121.507 198.781 121.507C197.94 121.507 197.108 121.641 196.286 121.91C195.484 122.159 194.799 122.505 194.231 122.946L192.587 119.809C193.448 119.214 194.476 118.753 195.67 118.427C196.883 118.101 198.125 117.937 199.397 117.937ZM199.045 130.862C199.828 130.862 200.523 130.69 201.129 130.344C201.736 129.98 202.166 129.452 202.421 128.761V127.178H199.28C197.401 127.178 196.462 127.782 196.462 128.991C196.462 129.567 196.687 130.028 197.137 130.373C197.607 130.699 198.243 130.862 199.045 130.862Z" fill="#EF3A01"/>
<defs>
<linearGradient id="paint0_linear_44_169" x1="27.2805" y1="-7.92742e-07" x2="55.8826" y2="94.9325" gradientUnits="userSpaceOnUse">
<stop stop-color="#FF5823"/>
<stop offset="1" stop-color="#EF3A01"/>
</linearGradient>
<linearGradient id="paint1_linear_44_169" x1="90.5854" y1="24.1154" x2="112.586" y2="94.9467" gradientUnits="userSpaceOnUse">
<stop stop-color="#DF2800"/>
<stop offset="1" stop-color="#FD5019"/>
</linearGradient>
<linearGradient id="paint2_linear_44_169" x1="83.309" y1="-4.29823e-07" x2="60.5759" y2="70.8281" gradientUnits="userSpaceOnUse">
<stop stop-color="#FF5D2B"/>
<stop offset="1" stop-color="#DF2800"/>
</linearGradient>
<linearGradient id="paint3_linear_44_169" x1="142.248" y1="-5.91685e-07" x2="119.514" y2="71.5593" gradientUnits="userSpaceOnUse">
<stop stop-color="#FF5925"/>
<stop offset="1" stop-color="#DF2800"/>
</linearGradient>
<linearGradient id="paint4_linear_44_169" x1="180.086" y1="56.2692" x2="133.429" y2="80.9496" gradientUnits="userSpaceOnUse">
<stop stop-color="#DF2800"/>
<stop offset="1" stop-color="#FF5520"/>
</linearGradient>
<linearGradient id="paint5_linear_44_169" x1="147.341" y1="2.92307" x2="190.488" y2="53.8946" gradientUnits="userSpaceOnUse">
<stop stop-color="#DF2800"/>
<stop offset="1" stop-color="#FF5D29"/>
</linearGradient>
</defs>
</svg>
